<?xml version="1.0" encoding="iso-8859-1"?>
<!-- Generator: Adobe Illustrator 16.0.0, SVG Export Plug-In . SVG Version: 6.00 Build 0)  -->
<!DOCTYPE svg PUBLIC "-//W3C//DTD SVG 1.1//EN" "http://www.w3.org/Graphics/SVG/1.1/DTD/svg11.dtd">
<svg version="1.1" id="Capa_1" xmlns="http://www.w3.org/2000/svg" xmlns:xlink="http://www.w3.org/1999/xlink" x="0px" y="0px"
	 width="433.328px" height="433.328px" viewBox="0 0 433.328 433.328" style="enable-background:new 0 0 433.328 433.328;"
	 xml:space="preserve">
<g>
	<g>
		<rect x="224.024" y="62.608" width="12.716" height="306.88"/>
		<rect x="287.958" y="60.094" width="29.91" height="309.395"/>
		<polygon points="258.059,60.094 257.909,60.094 257.909,62.608 243.112,62.608 243.112,369.488 258.059,369.488 		"/>
		<rect x="332.172" y="60.094" width="12.728" height="309.395"/>
		<rect x="370.369" y="60.094" width="25.443" height="309.395"/>
		<rect x="38.443" y="60.094" width="12.72" height="309.395"/>
		<rect x="57.535" y="60.094" width="14.95" height="309.395"/>
		<path d="M0,35.489v362.35h433.328V35.489H0z M422.123,386.633H11.207V46.696h410.916V386.633z"/>
		<rect x="146.596" y="60.094" width="12.73" height="309.395"/>
		<polygon points="210.232,62.608 210.194,62.608 210.194,60.094 184.788,60.094 184.788,369.488 210.232,369.488 		"/>
		<rect x="102.379" y="60.094" width="29.916" height="309.395"/>
	</g>
</g>
<g>
</g>
<g>
</g>
<g>
</g>
<g>
</g>
<g>
</g>
<g>
</g>
<g>
</g>
<g>
</g>
<g>
</g>
<g>
</g>
<g>
</g>
<g>
</g>
<g>
</g>
<g>
</g>
<g>
</g>
</svg>
