<?xml version="1.0" encoding="iso-8859-1"?>
<!-- Generator: Adobe Illustrator 16.0.0, SVG Export Plug-In . SVG Version: 6.00 Build 0)  -->
<!DOCTYPE svg PUBLIC "-//W3C//DTD SVG 1.1//EN" "http://www.w3.org/Graphics/SVG/1.1/DTD/svg11.dtd">
<svg version="1.1" id="Capa_1" xmlns="http://www.w3.org/2000/svg" xmlns:xlink="http://www.w3.org/1999/xlink" x="0px" y="0px"
	 width="977.9px" height="977.9px" viewBox="0 0 977.9 977.9" style="enable-background:new 0 0 977.9 977.9;" xml:space="preserve"
	>
<g>
	<g>
		<path d="M184.65,692.2h61.8v256.7c0,16,13,29,29,29h168.9c16,0,29-13,29-29v-522l75.8,86.3c9.5,10.8,23.2,17,37.601,17
			l148.6-0.101c16,0,29-13,29-29V456.7c0-16-13-29-29-29h-101.9c-14.5,0-28.199-6.3-37.699-17.2l-93.7-107.7
			c-12.2-14-29.8-22-48.4-22h-18.2l-56.199,90.5l-19.601-34.8l34.601-55.8h-84.5l34.6,55.8l-19.6,34.7l-56.2-90.5h-83.8
			c-16,0-29,13-29,29V663.1C155.65,679.2,168.65,692.2,184.65,692.2z"/>
		<path d="M351.251,236.5c56.5,0.4,102.199-46.1,102.199-102.7V58.6c0-13.8-11.199-25-25-25h-75.3c-56.5,0-103.1,45.7-102.7,102.2
			C250.951,191.2,295.751,236.1,351.251,236.5z"/>
		<path d="M627.851,235.3h57.2v66.6h-48.3c-15.2,0-27.5,12.3-27.5,27.5c0,15.2,12.3,27.5,27.5,27.5h48.3V388
			c0,15.2,12.3,27.5,27.5,27.5s27.5-12.3,27.5-27.5v-31.1h54.6c15.2,0,27.5-12.3,27.5-27.5V207.8c0-15.2-12.3-27.5-27.5-27.5h-54.6
			v-66.6h40.8c15.2,0,27.5-12.3,27.5-27.5c0-15.2-12.3-27.5-27.5-27.5h-40.9V27.5c0-15.2-12.3-27.5-27.5-27.5
			c-15.199,0-27.399,12.3-27.399,27.5v31.1h-57.2c-15.2,0-27.5,12.3-27.5,27.5v121.6C600.351,223,612.65,235.3,627.851,235.3z
			 M740.051,235.3h27.1v66.6h-27.1V235.3z M655.351,113.6h29.7v66.6h-29.7V113.6z"/>
	</g>
</g>
<g>
</g>
<g>
</g>
<g>
</g>
<g>
</g>
<g>
</g>
<g>
</g>
<g>
</g>
<g>
</g>
<g>
</g>
<g>
</g>
<g>
</g>
<g>
</g>
<g>
</g>
<g>
</g>
<g>
</g>
</svg>
