<?xml version="1.0" encoding="iso-8859-1"?>
<!-- Generator: Adobe Illustrator 16.0.0, SVG Export Plug-In . SVG Version: 6.00 Build 0)  -->
<!DOCTYPE svg PUBLIC "-//W3C//DTD SVG 1.1//EN" "http://www.w3.org/Graphics/SVG/1.1/DTD/svg11.dtd">
<svg version="1.1" id="Capa_1" xmlns="http://www.w3.org/2000/svg" xmlns:xlink="http://www.w3.org/1999/xlink" x="0px" y="0px"
	 width="950.4px" height="950.4px" viewBox="0 0 950.4 950.4" style="enable-background:new 0 0 950.4 950.4;" xml:space="preserve"
	>
<g>
	<g>
		<path d="M290,455.85c-0.2-23,4.2-45.3,13.101-66.5c5.699-13.601,13.1-26.3,22.1-37.9h-29.8l-59.2,95.3l-20.6-36.5l36.4-58.8h-44.9
			h-44.9l36.4,58.8l-20.6,36.5l-59.2-95.3H50c-27.6,0-50,22.4-50,50v163.5h330.5C304.601,534.45,290.3,496.249,290,455.85z"/>
		<path d="M206.2,313.85c68.1,0.5,123.9-55.9,123.9-124.1V84.55c0-9.1-7.4-16.5-16.5-16.5H208.2c-68.1,0-124.6,55.8-124.1,123.9
			C84.7,259.05,139,313.35,206.2,313.85z"/>
		<path d="M900.4,351.45h-68.8l-59.2,95.3l-20.601-36.5l36.4-58.8h-44.9H698.4l36.399,58.8l-20.6,36.5l-59.2-95.3h-23.7v101.9
			c0,23-4.5,45.399-13.399,66.6c-6.9,16.4-16.2,31.6-27.8,45.1h360.3v-163.6C950.4,373.85,928,351.45,900.4,351.45z"/>
		<path d="M742.4,313.85c68.1,0.5,123.899-55.9,123.899-124.1V84.55c0-9.1-7.399-16.5-16.5-16.5H744.4
			c-68.101,0-124.601,55.8-124.101,123.9C620.9,259.05,675.2,313.35,742.4,313.85z"/>
		<path d="M647.601,638.149H561.8l-67.8,109l-23.6-41.799L512,638.05h-51.399h-51.4l41.6,67.301L427.4,747.149l-67.8-109h-85.8
			c-27.6,0-50,22.4-50,50v194.201h473.8V688.149C697.601,660.55,675.2,638.149,647.601,638.149z"/>
		<path d="M373.5,564.95c23.7,18.799,53.601,30,86.101,30.299c0.3,0,0.699,0,1.1,0c32.6,0,62.6-11.398,86.5-30.299
			c33-26.1,54.2-66.6,54.2-111.6v-101.9v-18.6c0-10.4-8.5-18.9-18.9-18.9H461.9c-36.9,0-70.7,14.3-96.101,37.6
			c-28.3,25.9-46.1,63.1-45.8,104.1C320.3,499.95,341.2,539.351,373.5,564.95z"/>
	</g>
</g>
<g>
</g>
<g>
</g>
<g>
</g>
<g>
</g>
<g>
</g>
<g>
</g>
<g>
</g>
<g>
</g>
<g>
</g>
<g>
</g>
<g>
</g>
<g>
</g>
<g>
</g>
<g>
</g>
<g>
</g>
</svg>
