<?xml version="1.0" encoding="iso-8859-1"?>
<!-- Generator: Adobe Illustrator 16.0.0, SVG Export Plug-In . SVG Version: 6.00 Build 0)  -->
<!DOCTYPE svg PUBLIC "-//W3C//DTD SVG 1.1//EN" "http://www.w3.org/Graphics/SVG/1.1/DTD/svg11.dtd">
<svg version="1.1" id="Capa_1" xmlns="http://www.w3.org/2000/svg" xmlns:xlink="http://www.w3.org/1999/xlink" x="0px" y="0px"
	 width="406.638px" height="406.637px" viewBox="0 0 406.638 406.637" style="enable-background:new 0 0 406.638 406.637;"
	 xml:space="preserve">
<g>
	<g>
		<path d="M236.391,345.297c0-1.56-1.275-2.834-2.835-2.834h-60.473c-1.559,0-2.834,1.274-2.834,2.834v9.519
			c0,1.56-1.275,2.834-2.834,2.834h-43.22c-1.559,0-2.834,1.274-2.834,2.834v12.169c0,1.559,1.275,2.834,2.834,2.834h158.249
			c1.561,0,2.836-1.275,2.836-2.834v-12.169c0-1.56-1.275-2.834-2.836-2.834h-43.217c-1.56,0-2.835-1.274-2.835-2.834
			L236.391,345.297L236.391,345.297z"/>
		<path d="M383.854,31.151H22.783C10.22,31.151,0,41.372,0,53.935v250.921c0,12.562,10.221,22.783,22.783,22.783h361.072
			c12.563,0,22.783-10.221,22.783-22.783V53.935C406.638,41.372,396.418,31.151,383.854,31.151z M203.318,307.967
			c-5.668,0-10.264-4.596-10.264-10.267c0-5.67,4.596-10.266,10.264-10.266c5.67,0,10.268,4.596,10.268,10.266
			C213.586,303.372,208.988,307.967,203.318,307.967z M389.396,276.385H17.242V53.935c0-3.003,2.537-5.54,5.541-5.54h361.072
			c3.002,0,5.541,2.537,5.541,5.54V276.385L389.396,276.385z"/>
		<path d="M343.132,100.593c-3.511-2.682-8.532-2.008-11.213,1.502l-58.876,77.099l-69.997-37.237
			c-6.347-3.376-14.503-1.375-18.565,4.557l-46.362,67.7c-0.397,0.494-1.708,1.185-2.296,1.232H68.364c-4.418,0-8,3.582-8,8
			s3.582,8,8,8h67.459c5.729,0,12.236-3.432,15.473-8.156l45.548-66.509l69.676,37.066c6.17,3.282,14.322,1.501,18.561-4.051
			l59.557-77.99C347.315,108.295,346.643,103.274,343.132,100.593z"/>
	</g>
</g>
<g>
</g>
<g>
</g>
<g>
</g>
<g>
</g>
<g>
</g>
<g>
</g>
<g>
</g>
<g>
</g>
<g>
</g>
<g>
</g>
<g>
</g>
<g>
</g>
<g>
</g>
<g>
</g>
<g>
</g>
</svg>
