<?xml version="1.0" encoding="iso-8859-1"?>
<!-- Generator: Adobe Illustrator 16.0.0, SVG Export Plug-In . SVG Version: 6.00 Build 0)  -->
<!DOCTYPE svg PUBLIC "-//W3C//DTD SVG 1.1//EN" "http://www.w3.org/Graphics/SVG/1.1/DTD/svg11.dtd">
<svg version="1.1" id="Capa_1" xmlns="http://www.w3.org/2000/svg" xmlns:xlink="http://www.w3.org/1999/xlink" x="0px" y="0px"
	 width="532.63px" height="532.631px" viewBox="0 0 532.63 532.631" style="enable-background:new 0 0 532.63 532.631;"
	 xml:space="preserve">
<g>
	<g>
		<path d="M401.897,292.399c7.364,0,13.334,5.976,13.334,13.347c0,7.364-5.97,13.335-13.334,13.335
			c-7.371,0-13.347-5.971-13.347-13.335C388.55,298.375,394.526,292.399,401.897,292.399z"/>
		<path d="M199.683,80.439c0-0.582,0-1.616,0.03-2.899H97.829v146.389h101.925L199.683,80.439z"/>
		<path d="M510.169,394.585V175.733c0-16.054-8.766-30.071-21.739-37.592V38.048H244.936v94.208h-32.645v43.482h32.645H466.69
			l0.024,218.846H66.67V271.387h191.311v-86.956h-45.69v21.74h9.46v37.684H79.712V206.17h7.462v-21.74H66.67v-8.698h20.504V132.25
			H66.67c-23.974,0-43.482,19.509-43.482,43.483v218.852H0v99.998h532.63v-99.998H510.169z M444.951,132.256H288.421V81.527h156.529
			V132.256z M276.098,472.85c-15.611,0-28.263-12.655-28.263-28.26c0-15.61,12.658-28.259,28.263-28.259
			c15.609,0,28.259,12.648,28.259,28.259C304.363,460.194,291.708,472.85,276.098,472.85z"/>
		<path d="M443.497,245.119c0-11.706-9.493-21.19-21.196-21.19H304.901c-11.703,0-21.19,9.49-21.19,21.19
			c0,11.707,9.487,21.196,21.19,21.196H422.3C434.009,266.315,443.497,256.826,443.497,245.119z"/>
		<path d="M316.563,292.399c7.37,0,13.341,5.976,13.341,13.347c0,7.364-5.971,13.335-13.341,13.335
			c-7.365,0-13.341-5.971-13.341-13.335C303.222,298.375,309.198,292.399,316.563,292.399z"/>
		<path d="M316.563,336.423c7.37,0,13.341,5.97,13.341,13.341c0,7.37-5.971,13.341-13.341,13.341
			c-7.365,0-13.341-5.971-13.341-13.341C303.222,342.393,309.198,336.423,316.563,336.423z"/>
		<path d="M359.256,292.399c7.365,0,13.335,5.976,13.335,13.347c0,7.364-5.97,13.335-13.335,13.335
			c-7.371,0-13.347-5.971-13.347-13.335C345.91,298.375,351.885,292.399,359.256,292.399z"/>
		<path d="M401.897,336.423c7.364,0,13.334,5.97,13.334,13.341c0,7.37-5.97,13.341-13.334,13.341
			c-7.371,0-13.347-5.971-13.347-13.341C388.55,342.393,394.526,336.423,401.897,336.423z"/>
		<path d="M359.256,336.423c7.365,0,13.335,5.97,13.335,13.341c0,7.37-5.97,13.341-13.335,13.341
			c-7.371,0-13.347-5.971-13.347-13.341C345.91,342.393,351.885,336.423,359.256,336.423z"/>
	</g>
</g>
<g>
</g>
<g>
</g>
<g>
</g>
<g>
</g>
<g>
</g>
<g>
</g>
<g>
</g>
<g>
</g>
<g>
</g>
<g>
</g>
<g>
</g>
<g>
</g>
<g>
</g>
<g>
</g>
<g>
</g>
</svg>
