<?xml version="1.0" encoding="iso-8859-1"?>
<!-- Generator: Adobe Illustrator 16.0.0, SVG Export Plug-In . SVG Version: 6.00 Build 0)  -->
<!DOCTYPE svg PUBLIC "-//W3C//DTD SVG 1.1//EN" "http://www.w3.org/Graphics/SVG/1.1/DTD/svg11.dtd">
<svg version="1.1" id="Capa_1" xmlns="http://www.w3.org/2000/svg" xmlns:xlink="http://www.w3.org/1999/xlink" x="0px" y="0px"
	 width="480.167px" height="480.167px" viewBox="0 0 480.167 480.167" style="enable-background:new 0 0 480.167 480.167;"
	 xml:space="preserve">
<g>
	<path d="M448.261,352.793c-0.769-30.375-7.814-59.161-19.872-85.174l11.91-3.931l5.296,16.207
		c2.021,6.183,8.671,9.558,14.848,7.536c6.177-2.027,9.558-8.671,7.536-14.854l-10.704-32.711
		c-2.021-6.179-8.665-9.557-14.854-7.536c-6.177,2.021-9.54,8.671-7.519,14.854l3.511,10.752l-12.702,4.202
		c-9.05-18.158-20.552-34.862-34.123-49.659l13.571-12.07l11.219,13.075c4.232,4.932,11.668,5.497,16.604,1.265
		c4.936-4.235,5.503-11.671,1.265-16.604l-22.419-26.116c-4.238-4.927-11.668-5.5-16.604-1.266
		c-4.936,4.238-5.491,11.671-1.266,16.604l7.259,8.45l-13.796,12.268c-14.9-15.368-32.042-28.543-50.933-38.955l6.845-11.831
		l14.398,8.098c5.668,3.183,12.838,1.173,16.03-4.492c3.18-5.671,1.17-12.844-4.492-16.033l-29.991-16.869
		c-5.675-3.184-12.851-1.18-16.042,4.492c-3.181,5.665-1.171,12.844,4.492,16.026l10.332,5.811l-6.928,11.966
		c-23.607-12.155-49.745-20.114-77.431-22.818v-1.046h-90.79V65.772c0-16.718-13.544-30.263-30.263-30.263H89.53H68.092H26.982
		C12.082,35.509,0,47.588,0,62.492c0,14.901,12.082,26.983,26.982,26.983h10.847v238.576c0,10.172,5.06,19.121,12.752,24.606h-3.975
		c-19.047,0-34.501,15.45-34.501,34.501v22.999c0,19.056,15.454,34.501,34.501,34.501h399.06c19.05,0,34.501-15.445,34.501-34.501
		v-22.999C480.167,368.982,466.094,354.123,448.261,352.793z M66.076,313.93c0,3.34-2.71,6.053-6.052,6.053
		c-3.346,0-6.053-2.713-6.053-6.053V112.172c0-3.343,2.707-6.053,6.053-6.053c3.342,0,6.052,2.71,6.052,6.053V313.93z
		 M381.941,264.285c-0.916,0.502-1.903,0.738-2.884,0.738c-2.151,0-4.221-1.146-5.326-3.156
		c-35.896-66.038-111.364-78.506-112.121-78.622c-3.298-0.514-5.556-3.605-5.048-6.913c0.509-3.298,3.605-5.55,6.892-5.054
		c3.34,0.508,82.102,13.382,120.917,84.808C385.973,259.019,384.886,262.684,381.941,264.285z"/>
</g>
<g>
</g>
<g>
</g>
<g>
</g>
<g>
</g>
<g>
</g>
<g>
</g>
<g>
</g>
<g>
</g>
<g>
</g>
<g>
</g>
<g>
</g>
<g>
</g>
<g>
</g>
<g>
</g>
<g>
</g>
</svg>
