<?xml version="1.0" encoding="iso-8859-1"?>
<!-- Generator: Adobe Illustrator 16.0.0, SVG Export Plug-In . SVG Version: 6.00 Build 0)  -->
<!DOCTYPE svg PUBLIC "-//W3C//DTD SVG 1.1//EN" "http://www.w3.org/Graphics/SVG/1.1/DTD/svg11.dtd">
<svg version="1.1" id="Capa_1" xmlns="http://www.w3.org/2000/svg" xmlns:xlink="http://www.w3.org/1999/xlink" x="0px" y="0px"
	 width="926.104px" height="926.104px" viewBox="0 0 926.104 926.104" style="enable-background:new 0 0 926.104 926.104;"
	 xml:space="preserve">
<g>
	<g>
		<path d="M440.3,925.104c224.2,0,409.2-167.5,436.799-384.1c3.801-29.9-19.5-56.3-49.6-56.3H515.301c-41.4,0-75-33.601-75-75
			v-312.2c0-30.1-26.4-53.4-56.3-49.6C167.4,75.604,0,260.604,0,484.705C0,728.405,196.7,925.104,440.3,925.104z"/>
		<path d="M544.801,1.404c-29.801-3.8-56,19.7-56,49.6v337.2c0,27.6,22.398,50,50,50H876.1c30,0,53.4-26.2,49.6-56
			C900.5,183.804,743.301,26.604,544.801,1.404z"/>
	</g>
</g>
<g>
</g>
<g>
</g>
<g>
</g>
<g>
</g>
<g>
</g>
<g>
</g>
<g>
</g>
<g>
</g>
<g>
</g>
<g>
</g>
<g>
</g>
<g>
</g>
<g>
</g>
<g>
</g>
<g>
</g>
</svg>
