<?xml version="1.0" encoding="iso-8859-1"?>
<!-- Generator: Adobe Illustrator 16.0.0, SVG Export Plug-In . SVG Version: 6.00 Build 0)  -->
<!DOCTYPE svg PUBLIC "-//W3C//DTD SVG 1.1//EN" "http://www.w3.org/Graphics/SVG/1.1/DTD/svg11.dtd">
<svg version="1.1" id="Capa_1" xmlns="http://www.w3.org/2000/svg" xmlns:xlink="http://www.w3.org/1999/xlink" x="0px" y="0px"
	 width="611.997px" height="611.996px" viewBox="0 0 611.997 611.996" style="enable-background:new 0 0 611.997 611.996;"
	 xml:space="preserve">
<g>
	<path d="M580.887,409.665c-16.756-25.998-51.408-33.458-77.406-16.702l-110.145,71.052h-29.51v-32.002
		c0-30.924-25.072-55.998-55.998-55.998H201.835c-10.63,0-20.485,3.132-28.952,8.289c-5.39-25.29-27.821-44.293-54.731-44.293
		H78.148c-30.924,0-55.984,25.071-55.984,55.998v159.989c0,30.924,25.072,55.998,55.984,55.998h40.004
		c26.896,0,49.341-18.988,54.731-44.278c8.466,5.159,18.321,8.288,28.952,8.288h105.993h102.006c10.768,0,21.301-3.103,30.367-8.943
		l123.986-79.994C590.172,470.318,597.645,435.662,580.887,409.665z M118.167,435.405c-5.634,4.11-12.495,6.628-20.008,6.628
		s-14.374-2.518-20.008-6.628c-8.439-6.179-13.978-16.09-13.978-27.373c0-18.784,15.218-34,33.988-34
		c18.785,0,34.001,15.218,34.001,34C132.16,419.315,126.619,429.225,118.167,435.405z M189.804,290.796h6.249
		c-0.218-2.083-0.218-4.166-0.218-6.438c0-2.505,0-5.2,0.218-7.705h-6.249c-5.838,0-10.616-4.588-10.616-10.385
		c0-5.839,4.792-10.63,10.616-10.63H200c8.521-27.469,29.768-46.81,60.558-46.81c21.657,0,34.519,7.676,45.368,19.137
		c2.068,2.083,4.355,6.044,4.355,10.808c0,8.358-7.105,15-15.394,15c-5.418,0-8.956-2.505-11.039-4.792
		c-6.642-7.487-13.748-11.638-23.929-11.638c-12.277,0-21.234,6.846-26.42,18.295h28.925c5.826,0,10.616,4.792,10.616,10.63
		c0,5.797-4.805,10.385-10.616,10.385h-33.907c-0.218,2.301-0.218,4.792-0.218,7.295c0,2.491,0,4.777,0.218,6.846h33.907
		c5.826,0,10.616,4.792,10.616,10.616c0,5.826-4.805,10.412-10.616,10.412h-29.346c5.212,12.265,14.796,19.137,28.095,19.137
		c10.413,0,17.069-4.355,24.337-12.713c2.505-2.898,6.03-4.968,10.834-4.968c7.895,0,14.359,6.425,14.359,14.348
		c0,3.743-1.674,7.269-3.117,9.147c-11.474,13.938-25.371,22.69-46.401,22.69c-31.851,0-53.466-19.165-61.796-47.654h-9.582
		c-5.838,0-10.616-4.588-10.616-10.412C179.186,295.588,183.978,290.796,189.804,290.796z M344.008,236.091
		c-2.695-3.744-3.949-6.861-3.949-10.82c0-7.895,6.453-15.19,15.805-15.19c6.656,0,11.461,3.525,14.986,8.956l30.57,45.368
		l30.832-44.945c3.102-4.588,7.689-9.366,14.754-9.366c8.344,0,15.408,5.608,15.408,14.986c0,4.355-1.66,7.921-3.932,11.026
		l-33.541,43.911h20.008c6.25,0,11.217,4.996,11.217,11.23c0,6.249-4.967,11.257-11.217,11.257h-28.299v12.917h28.299
		c6.25,0,11.217,4.967,11.217,11.216c0,6.248-4.967,11.23-11.217,11.23h-28.299v4.996c0,8.535-6.859,15.394-15.422,15.394
		c-8.521,0-15.381-6.86-15.381-15.394v-4.996h-28.285c-6.26,0-11.23-4.982-11.23-11.23c0-6.249,4.969-11.216,11.23-11.216h28.285
		v-12.917h-28.285c-6.26,0-11.23-5.008-11.23-11.257c0-6.22,4.969-11.23,11.23-11.23h19.545L344.008,236.091z M361.254,148.08
		v-29.333h-3.744c-7.27,0-13.312-5.812-13.312-13.107c0-7.268,6.043-13.325,13.312-13.325h3.744v-16.85
		c0-14.986,4.369-27.455,12.48-35.58c8.547-8.535,20.811-13.313,36.859-13.313c18.484,0,30.791,6.453,39.938,15.79
		c2.939,2.928,4.996,6.249,4.996,11.447c0,8.751-7.078,15.626-15.816,15.626c-5.621,0-9.365-2.695-11.434-4.778
		c-5.404-5.634-10.412-8.33-17.287-8.33c-4.996,0-8.74,1.457-11.857,4.56c-3.334,3.348-5.402,8.752-5.402,15.408v16.02h35.363
		c7.309,0,13.324,6.044,13.324,13.325c0,7.295-6.016,13.107-13.324,13.107h-35.363v27.877h50.553
		c7.717,0,13.951,6.249,13.951,13.937c0,7.691-6.234,13.721-13.951,13.721h-87.195c-7.664,0-12.877-5.186-12.877-11.638
		c0-5.2,3.117-9.978,8.74-11.869L361.254,148.08z M307.842,129.391v0.422c0,25.998-17.668,41.828-43.856,45.082v10.44
		c0,7.746-6.275,14.047-14.007,14.047c-7.758,0-14.06-6.289-14.06-14.047v-11.609c-13.284-2.505-26.283-7.677-37.691-15.857
		c-3.607-2.518-6.126-7.161-6.126-12.209c0-8.439,6.738-14.974,15.163-14.974c4.219,0,7.173,1.471,9.296,2.927
		c11.148,8.248,23.384,13.299,37.717,13.299c13.271,0,21.302-5.267,21.302-13.911v-0.422c0-8.221-5.078-12.414-29.755-18.756
		c-29.686-7.581-48.907-15.804-48.907-45.123v-0.422c0-22.813,15.708-38.929,38.97-43.229V14.033c0-7.746,6.302-14.033,14.06-14.033
		c7.731,0,14.006,6.289,14.006,14.033v11.108c11.61,1.905,22.105,5.812,31.416,11.734c3.592,2.097,7.161,6.534,7.161,12.862
		c0,8.425-6.724,14.986-15.164,14.986c-3.185,0-5.704-0.845-8.221-2.328c-10.738-6.316-20.894-9.923-31.02-9.923
		c-12.44,0-18.962,5.69-18.962,12.862v0.422c0,9.692,6.316,12.85,31.838,19.382C290.978,92.912,307.842,103.665,307.842,129.391z"/>
</g>
<g>
</g>
<g>
</g>
<g>
</g>
<g>
</g>
<g>
</g>
<g>
</g>
<g>
</g>
<g>
</g>
<g>
</g>
<g>
</g>
<g>
</g>
<g>
</g>
<g>
</g>
<g>
</g>
<g>
</g>
</svg>
