<?xml version="1.0" encoding="iso-8859-1"?>
<!-- Generator: Adobe Illustrator 16.0.0, SVG Export Plug-In . SVG Version: 6.00 Build 0)  -->
<!DOCTYPE svg PUBLIC "-//W3C//DTD SVG 1.1//EN" "http://www.w3.org/Graphics/SVG/1.1/DTD/svg11.dtd">
<svg version="1.1" id="Capa_1" xmlns="http://www.w3.org/2000/svg" xmlns:xlink="http://www.w3.org/1999/xlink" x="0px" y="0px"
	 width="460.562px" height="460.562px" viewBox="0 0 460.562 460.562" style="enable-background:new 0 0 460.562 460.562;"
	 xml:space="preserve">
<g>
	<path d="M403.051,57.631c-22.299-22.295-54.811-28.085-82.461-17.442L286.313,5.913l-14.782,14.774L250.848,0l-19.205,19.21
		l20.685,20.687l-13.299,13.296l2.447,2.455L97.569,172.438c-2.963-0.958-6.124-1.484-9.407-1.484
		c-16.927,0-30.651,13.715-30.651,30.648c0,15.36,11.314,28.047,26.049,30.268l84.643,186.136
		c-8.147,2.31-15.056,5.614-20.055,9.598c-48.181,5.166-82.307,17.971-82.307,32.959h259.184c0-14.988-34.132-27.793-82.298-32.959
		c-8.592-6.829-22.77-11.677-39.277-12.881l-89.441-196.686c3.027-4.758,4.808-10.383,4.808-16.44c0-1.081-0.06-2.15-0.168-3.204
		L265.238,79.418l9.491,9.48c-8.451,26.643-2.162,56.947,18.975,78.083l29.122-29.128c7.519,7.324,17.28,11.004,27.054,11.004
		c9.944,0,19.885-3.787,27.444-11.347c7.33-7.334,11.364-17.078,11.364-27.439c0-10.191-3.917-19.773-11.022-27.059L403.051,57.631z
		 M380.337,110.067c0,8.131-3.167,15.778-8.919,21.535c-11.752,11.749-30.774,11.85-42.682,0.348l43.031-43.029
		C377.283,94.625,380.337,102.105,380.337,110.067z"/>
</g>
<g>
</g>
<g>
</g>
<g>
</g>
<g>
</g>
<g>
</g>
<g>
</g>
<g>
</g>
<g>
</g>
<g>
</g>
<g>
</g>
<g>
</g>
<g>
</g>
<g>
</g>
<g>
</g>
<g>
</g>
</svg>
