<?xml version="1.0" encoding="iso-8859-1"?>
<!-- Generator: Adobe Illustrator 16.0.0, SVG Export Plug-In . SVG Version: 6.00 Build 0)  -->
<!DOCTYPE svg PUBLIC "-//W3C//DTD SVG 1.1//EN" "http://www.w3.org/Graphics/SVG/1.1/DTD/svg11.dtd">
<svg version="1.1" id="Capa_1" xmlns="http://www.w3.org/2000/svg" xmlns:xlink="http://www.w3.org/1999/xlink" x="0px" y="0px"
	 width="519.346px" height="519.347px" viewBox="0 0 519.346 519.347" style="enable-background:new 0 0 519.346 519.347;"
	 xml:space="preserve">
<g>
	<g id="Layer_8_29_">
		<g>
			<path d="M438.364,189.24c1.994-3.907,3.502-8.12,4.31-12.574V95.545H295.11V59.868c0-4.637-3.769-8.405-8.404-8.405H156.898
				c-4.641,0-8.404,3.768-8.404,8.405v35.677H0v88.354c6.326,17.532,23.078,30.118,42.769,30.118h21.669v-13.739h51.13v13.734
				h188.576c2.43-14.044,14.605-24.777,29.324-24.777L438.364,189.24L438.364,189.24z M278.3,95.545H165.303V68.273H278.3V95.545z"
				/>
			<path d="M115.568,260.516h-51.13v-35.297H42.769c-17.067,0-32.357-7.615-42.769-19.59v198.1h303.63V225.224H115.568V260.516z"/>
			<path d="M474.265,209.552H344.244c-8.727,0-15.825,7.117-15.825,15.845v226.649c0,8.734,7.107,15.837,15.825,15.837h159.269
				c8.745,0,15.834-7.103,15.834-15.837V258.547L474.265,209.552z M478,233.254l19.765,21.483H478V233.254z M506.061,452.046
				c0,1.401-1.147,2.539-2.549,2.539H344.244c-1.391,0-2.526-1.138-2.526-2.539V225.396c0-1.401,1.136-2.536,2.526-2.536h120.454
				v38.53c0,3.666,2.988,6.648,6.659,6.648h34.704V452.046z"/>
			<path d="M357.453,292.91c0,3.097,2.497,5.604,5.604,5.604h119.07c3.097,0,5.604-2.507,5.604-5.604
				c0-3.098-2.507-5.604-5.604-5.604h-119.07C359.95,287.306,357.453,289.812,357.453,292.91z"/>
			<path d="M482.126,336.335h-119.07c-3.106,0-5.604,2.507-5.604,5.604c0,3.1,2.497,5.604,5.604,5.604h119.07
				c3.097,0,5.604-2.504,5.604-5.604C487.73,338.842,485.223,336.335,482.126,336.335z"/>
			<path d="M482.126,380.986h-119.07c-3.106,0-5.604,2.507-5.604,5.604c0,3.104,2.497,5.604,5.604,5.604h119.07
				c3.097,0,5.604-2.5,5.604-5.604C487.73,383.493,485.223,380.986,482.126,380.986z"/>
		</g>
	</g>
</g>
<g>
</g>
<g>
</g>
<g>
</g>
<g>
</g>
<g>
</g>
<g>
</g>
<g>
</g>
<g>
</g>
<g>
</g>
<g>
</g>
<g>
</g>
<g>
</g>
<g>
</g>
<g>
</g>
<g>
</g>
</svg>
