<?xml version="1.0" encoding="iso-8859-1"?>
<!-- Generator: Adobe Illustrator 16.0.0, SVG Export Plug-In . SVG Version: 6.00 Build 0)  -->
<!DOCTYPE svg PUBLIC "-//W3C//DTD SVG 1.1//EN" "http://www.w3.org/Graphics/SVG/1.1/DTD/svg11.dtd">
<svg version="1.1" id="Capa_1" xmlns="http://www.w3.org/2000/svg" xmlns:xlink="http://www.w3.org/1999/xlink" x="0px" y="0px"
	 width="492.816px" height="492.816px" viewBox="0 0 492.816 492.816" style="enable-background:new 0 0 492.816 492.816;"
	 xml:space="preserve">
<g>
	<g id="Layer_8_1_">
		<path d="M250.12,125.577V91.525c5.816,1.531,9.711,3.479,11.721,5.869c1.992,2.374,2.991,5.763,2.991,10.176
			C264.832,118.349,259.932,124.348,250.12,125.577z M492.816,424.559v44.2c0,4.315-3.5,7.803-7.803,7.803H7.802
			c-4.315,0-7.802-3.487-7.802-7.803v-44.2c0-4.315,3.487-7.802,7.802-7.802h32.503V260.724h-7.796
			c-4.324,0-7.802-3.499-7.802-7.802V102.336c0-4.312,3.479-7.802,7.802-7.802h67.613c4.309,0,7.802,3.49,7.802,7.802v20.54h57.207
			V73.477c0-4.312,3.494-7.808,7.809-7.808h7.028c6.992-28.357,32.533-49.414,63.062-49.414c30.508,0,56.055,21.057,63.053,49.414
			h12.478c4.31,0,7.803,3.496,7.803,7.808v49.399h63.7v-20.54c0-4.312,3.499-7.802,7.802-7.802h67.631
			c4.304,0,7.803,3.49,7.803,7.802V252.91c0,4.303-3.499,7.796-7.803,7.796h-9.114v156.032h28.62
			C489.316,416.757,492.816,420.243,492.816,424.559z M115.579,288.9c0-3.363-2.722-6.088-6.088-6.088H82.139
			c-3.357,0-6.077,2.725-6.077,6.088v94.212c0,3.363,2.719,6.076,6.077,6.076h27.352c3.366,0,6.088-2.713,6.088-6.076V288.9z
			 M115.579,165.366c0-3.363-2.722-6.083-6.088-6.083H82.139c-3.357,0-6.077,2.719-6.077,6.083v94.223
			c0,3.357,2.719,6.076,6.077,6.076h27.352c3.366,0,6.088-2.719,6.088-6.076V165.366z M177.894,288.9
			c0-3.363-2.725-6.088-6.085-6.088H144.45c-3.357,0-6.082,2.725-6.082,6.088v94.212c0,3.363,2.725,6.076,6.082,6.076h27.358
			c3.36,0,6.085-2.713,6.085-6.076V288.9z M177.894,165.366c0-3.363-2.725-6.083-6.085-6.083H144.45
			c-3.357,0-6.082,2.719-6.082,6.083v94.223c0,3.357,2.725,6.076,6.082,6.076h27.358c3.36,0,6.085-2.719,6.085-6.076V165.366z
			 M243.323,90.018v35.559c-9.342-1.563-14.473-7.663-15.407-18.261h-12.354c1.194,16.713,10.454,26.025,27.76,27.925v9.747h6.797
			v-9.88c8.5-0.452,15.132-3.437,19.931-8.94c4.794-5.488,7.188-11.952,7.188-19.367c0-7.137-1.879-12.765-5.662-16.911
			c-3.777-4.134-10.923-7.282-21.456-9.442V48.436c7.648,1.052,11.798,5.544,12.478,13.429h12.419
			c-1.49-14.251-9.777-21.964-24.885-23.103v-9.791h-6.809v9.791c-7.894,0.722-14.166,3.372-18.814,7.953
			c-4.64,4.584-6.96,10.631-6.96,18.14C217.543,78.19,226.131,86.566,243.323,90.018z M299.067,167.092
			c0-4.309-3.493-7.803-7.803-7.803h-88.416c-4.306,0-7.802,3.494-7.802,7.803v214.543c0,4.326,3.497,7.802,7.802,7.802h88.416
			c4.31,0,7.803-3.476,7.803-7.802V167.092z M359.387,288.9c0-3.363-2.72-6.088-6.082-6.088h-27.361
			c-3.357,0-6.076,2.725-6.076,6.088v94.212c0,3.363,2.719,6.076,6.076,6.076h27.361c3.362,0,6.082-2.713,6.082-6.076V288.9z
			 M359.387,165.366c0-3.363-2.72-6.083-6.082-6.083h-27.361c-3.357,0-6.076,2.719-6.076,6.083v94.223
			c0,3.357,2.719,6.076,6.076,6.076h27.361c3.362,0,6.082-2.719,6.082-6.076V165.366z M421.691,288.9
			c0-3.363-2.713-6.088-6.082-6.088h-27.354c-3.363,0-6.076,2.725-6.076,6.088v94.212c0,3.363,2.713,6.076,6.076,6.076h27.354
			c3.369,0,6.082-2.713,6.082-6.076V288.9z M421.691,165.366c0-3.363-2.713-6.083-6.082-6.083h-27.354
			c-3.363,0-6.076,2.719-6.076,6.083v94.223c0,3.357,2.713,6.076,6.076,6.076h27.354c3.369,0,6.082-2.719,6.082-6.076V165.366z
			 M243.323,48.32c-8.961,1.569-13.432,6.768-13.432,15.581c0,4.761,1.241,8.219,3.724,10.379c2.474,2.161,5.713,3.759,9.708,4.77
			V48.32z"/>
	</g>
</g>
<g>
</g>
<g>
</g>
<g>
</g>
<g>
</g>
<g>
</g>
<g>
</g>
<g>
</g>
<g>
</g>
<g>
</g>
<g>
</g>
<g>
</g>
<g>
</g>
<g>
</g>
<g>
</g>
<g>
</g>
</svg>
