<?xml version="1.0" encoding="iso-8859-1"?>
<!-- Generator: Adobe Illustrator 16.0.0, SVG Export Plug-In . SVG Version: 6.00 Build 0)  -->
<!DOCTYPE svg PUBLIC "-//W3C//DTD SVG 1.1//EN" "http://www.w3.org/Graphics/SVG/1.1/DTD/svg11.dtd">
<svg version="1.1" id="Capa_1" xmlns="http://www.w3.org/2000/svg" xmlns:xlink="http://www.w3.org/1999/xlink" x="0px" y="0px"
	 width="612.001px" height="612.001px" viewBox="0 0 612.001 612.001" style="enable-background:new 0 0 612.001 612.001;"
	 xml:space="preserve">
<g>
	<path d="M343.714,182.021c2.821,0.94,4.476,2.583,5.562,4.027c5.655,7.999,12.701,14.092,22.304,17.297
		c8.886,2.954,15.431,1.191,17.362-4.582l0.092-0.277c1.828-5.51-0.622-9.458-15.734-19.178
		c-18.211-11.695-29.217-21.469-22.701-41.098l0.079-0.277c5.086-15.284,19.179-22.581,35.721-20.29l2.464-7.364
		c1.71-5.192,7.324-7.999,12.504-6.277c5.204,1.71,7.999,7.324,6.291,12.516l-2.491,7.444c7.338,3.841,13.51,8.807,18.409,14.833
		c1.946,2.211,3.364,5.973,1.946,10.212c-1.854,5.643-7.84,8.517-13.482,6.648c-2.132-0.716-3.629-1.84-4.994-3.378
		c-5.802-6.622-11.774-11.283-18.541-13.536c-8.332-2.768-13.973-0.397-15.575,4.384l-0.092,0.304
		c-2.146,6.489,1.391,10,17.005,20.051c18.291,11.867,27.191,22.834,21.469,40.037l-0.092,0.292
		c-5.774,17.403-21.124,24.066-39.376,20.422l-2.331,6.979c-1.723,5.204-7.324,7.999-12.504,6.277
		c-5.204-1.722-8.013-7.324-6.291-12.516l2.583-7.762c-8.37-4.649-15.894-10.979-21.721-19.019c-1.84-2.491-2.503-6.159-1.377-9.535
		C332.124,183.015,338.085,180.155,343.714,182.021z M545.106,101.603L468.647,323.5c23.072,9.378,39.388,31.971,39.388,58.422
		c0,32.911-25.296,59.639-57.493,62.552v91.068c0,34.859-28.25,63.123-63.109,63.123H267.956c-15.867,0-30.184-6.064-41.284-15.734
		c-11.23,17.454-30.714,29.07-53.018,29.07h-45.067c-34.859,0-63.122-28.25-63.122-63.124V368.556
		c0-34.859,28.264-63.11,63.122-63.11h45.07c7.032,0,13.762,1.179,20.051,3.326L294.062,17.567
		c4.661-13.497,19.27-20.741,32.846-16.224L528.713,68.4c6.596,2.199,12.04,6.926,15.125,13.178
		C546.922,87.802,547.385,95.02,545.106,101.603z M189.442,535.356c0-21.165-17.152-38.315-38.315-38.315
		c-21.177,0-38.33,17.138-38.33,38.315c0,21.165,17.152,38.329,38.33,38.329C172.292,573.686,189.442,556.521,189.442,535.356z
		 M487.282,109.522L334.907,58.889l-85.744,248.796l71.082-48.342c24.7-16.834,58.342-10.396,75.149,14.29
		c9.378,13.801,11.298,30.29,7.073,45.177h12.701L487.282,109.522z"/>
</g>
<g>
</g>
<g>
</g>
<g>
</g>
<g>
</g>
<g>
</g>
<g>
</g>
<g>
</g>
<g>
</g>
<g>
</g>
<g>
</g>
<g>
</g>
<g>
</g>
<g>
</g>
<g>
</g>
<g>
</g>
</svg>
