<?xml version="1.0" encoding="iso-8859-1"?>
<!-- Generator: Adobe Illustrator 16.0.0, SVG Export Plug-In . SVG Version: 6.00 Build 0)  -->
<!DOCTYPE svg PUBLIC "-//W3C//DTD SVG 1.1//EN" "http://www.w3.org/Graphics/SVG/1.1/DTD/svg11.dtd">
<svg version="1.1" id="Capa_1" xmlns="http://www.w3.org/2000/svg" xmlns:xlink="http://www.w3.org/1999/xlink" x="0px" y="0px"
	 width="964.799px" height="964.798px" viewBox="0 0 964.799 964.798" style="enable-background:new 0 0 964.799 964.798;"
	 xml:space="preserve">
<g>
	<g>
		<path d="M817.298,894.549c27.6,0,50-22.4,50-50v-117.7l-3.6,2.4c-9.2,6.2-19.801,9.5-30.801,9.5c-14.199,0-27.699-5.4-38.1-15.3
			c-9.9-9.4-15.7-21.801-16.8-35.301c-25.101-2.3-50-5.3-74.5-8.899v165.3c0,27.6,22.399,50,50,50H817.298z"/>
		<path d="M587.598,894.549c27.601,0,50-22.4,50-50v-176.7c-2-0.399-4-0.8-6-1.2c-25.5-5.199-51-11.199-75.899-17.8
			c-27.9-7.399-55.4-15.8-82-24.899v220.5c0,27.6,22.399,50,50,50h63.899V894.549z"/>
		<path d="M357.897,894.549c27.601,0,50-22.4,50-50v-245.4c-4-1.6-7.899-3.3-11.8-5c-48.7-20.8-94.7-44.899-137-71.5
			c-5.1-3.199-10.1-6.399-15-9.699v331.6c0,27.6,22.4,50,50,50H357.897z"/>
		<path d="M64.398,894.549h63.8c27.6,0,50-22.4,50-50v-379.8c-6.7-5.5-13.3-11-19.7-16.601c-42.8-37.399-79.2-78.3-108.3-121.6
			c-13.6-20.3-25.5-41-35.8-62.1v580.1C14.398,872.149,36.798,894.549,64.398,894.549z"/>
		<path d="M21.398,203.449c3.3,9.4,6.9,18.8,10.9,28c2.1,4.8,4.2,9.7,6.5,14.5c0.1,0.3,0.3,0.6,0.4,0.9c5,10.7,10.6,21.3,16.6,31.8
			s12.4,20.9,19.4,31.2c8.7,12.9,18,25.5,28,37.9c2,2.5,4,4.9,6.1,7.4c4.1,4.9,8.3,9.8,12.6,14.6c2.2,2.399,4.3,4.8,6.5,7.2
			c8.8,9.6,18,19,27.6,28.199c7.2,6.9,14.7,13.7,22.3,20.4c20.4,17.8,42.3,34.9,65.9,51.2c2.5,1.7,5,3.5,7.6,5.2
			c2.6,1.699,5.1,3.399,7.7,5.199c5.2,3.4,10.4,6.801,15.7,10.101c7.7,4.899,15.5,9.6,23.5,14.3c10.6,6.2,21.4,12.3,32.3,18.1
			c2.7,1.5,5.5,2.9,8.3,4.4c13.8,7.2,28,14.2,42.4,20.8c8.699,4,17.399,7.9,26.3,11.7l0,0c21.399,9.1,43.3,17.7,65.899,25.7l0,0
			c3.601,1.3,7.301,2.5,10.9,3.8c25.6,8.7,51.9,16.7,78.8,23.9c12.2,3.199,24.5,6.3,36.8,9.199c3.101,0.7,6.2,1.4,9.301,2.101
			c9.3,2.1,18.6,4.1,28,6l0,0c21.699,4.399,43.699,8.3,65.899,11.6h0.101c3.899,0.601,7.699,1.101,11.6,1.7c1.2,0.2,2.3,0.3,3.5,0.5
			c2.9,0.4,5.8,0.8,8.7,1.2c1.2,0.2,2.3,0.3,3.5,0.5c3.399,0.399,6.8,0.899,10.2,1.3c0.6,0.1,1.1,0.1,1.699,0.2
			c4.2,0.5,8.4,1,12.601,1.5c0.2,0,0.3,0,0.5,0.1c4,0.4,7.899,0.9,11.899,1.3c0.601,0.101,1.2,0.101,1.801,0.2
			c3.8,0.4,7.699,0.8,11.5,1.101c0.3,0,0.6,0.1,0.899,0.1c8.7,0.8,17.3,1.5,26,2.2v23.2c0,14.699,12.101,25,25.101,25
			c4.699,0,9.5-1.4,14-4.4l20.399-13.9l86.2-58.5c14.5-9.8,14.7-31,0.4-41.1l-106.601-75.3c-4.5-3.2-9.5-4.601-14.3-4.601
			c-13,0-25.1,10.301-25.1,25v24.2c-35.301-2.8-70.101-7-104.4-12.6c-22.2-3.601-44.2-7.8-65.9-12.601
			c-16.3-3.6-32.399-7.5-48.399-11.8c-40.3-10.7-78.8-23.3-115.5-37.8c-22.7-8.9-44.7-18.5-65.9-28.8
			c-27.899-13.5-54.399-28.2-79.5-44c-31-19.601-59.2-40.4-84.3-62.4c-32.8-28.6-60.5-61.8-86.9-96.2
			c-37-48.2-50.8-119.7-55.8-157.8c-1.9-15-14.7-26.1-29.7-26.1h-41.9c-17.5,0-31.3,14.9-29.9,32.3c2.1,26.6,6.9,53,14.4,78.9
			C16.498,188.75,18.898,196.149,21.398,203.449z"/>
	</g>
</g>
<g>
</g>
<g>
</g>
<g>
</g>
<g>
</g>
<g>
</g>
<g>
</g>
<g>
</g>
<g>
</g>
<g>
</g>
<g>
</g>
<g>
</g>
<g>
</g>
<g>
</g>
<g>
</g>
<g>
</g>
</svg>
