<?xml version="1.0" encoding="iso-8859-1"?>
<!-- Generator: Adobe Illustrator 16.0.0, SVG Export Plug-In . SVG Version: 6.00 Build 0)  -->
<!DOCTYPE svg PUBLIC "-//W3C//DTD SVG 1.1//EN" "http://www.w3.org/Graphics/SVG/1.1/DTD/svg11.dtd">
<svg version="1.1" id="Capa_1" xmlns="http://www.w3.org/2000/svg" xmlns:xlink="http://www.w3.org/1999/xlink" x="0px" y="0px"
	 width="612.001px" height="612px" viewBox="0 0 612.001 612" style="enable-background:new 0 0 612.001 612;" xml:space="preserve"
	>
<g>
	<path d="M559.774,484.625V318.758h1.404c0.088,0,0.165,0,0.253,0c27.928,0,50.569-22.642,50.569-50.569
		c0-17.991-9.406-33.792-23.552-42.756l-252.278-188.8c-17.965-13.439-42.63-13.439-60.595,0l-255.3,191.062
		C2.843,240.743-4.287,263.485,2.59,284.156c6.877,20.657,26.208,34.602,47.977,34.602h1.403v165.866
		c-26.422,1.657-47.409,23.401-47.409,50.254c0,27.928,22.642,50.569,50.569,50.569h501.485c27.928,0,50.569-22.642,50.569-50.569
		C607.185,508.026,586.211,486.293,559.774,484.625z M187.536,484.309h-34.425V318.756h34.425V484.309z M323.086,484.309h-34.413
		V318.756h34.413V484.309z M305.88,248.581c-34.374,0-62.238-27.864-62.238-62.226c0-34.374,27.865-62.226,62.238-62.226
		c34.375,0,62.239,27.852,62.239,62.226C368.119,220.716,340.255,248.581,305.88,248.581z M458.638,484.309h-34.425V318.756h34.425
		V484.309z"/>
</g>
<g>
</g>
<g>
</g>
<g>
</g>
<g>
</g>
<g>
</g>
<g>
</g>
<g>
</g>
<g>
</g>
<g>
</g>
<g>
</g>
<g>
</g>
<g>
</g>
<g>
</g>
<g>
</g>
<g>
</g>
</svg>
