<?xml version="1.0" encoding="iso-8859-1"?>
<!-- Generator: Adobe Illustrator 16.0.0, SVG Export Plug-In . SVG Version: 6.00 Build 0)  -->
<!DOCTYPE svg PUBLIC "-//W3C//DTD SVG 1.1//EN" "http://www.w3.org/Graphics/SVG/1.1/DTD/svg11.dtd">
<svg version="1.1" id="Capa_1" xmlns="http://www.w3.org/2000/svg" xmlns:xlink="http://www.w3.org/1999/xlink" x="0px" y="0px"
	 width="458.252px" height="458.252px" viewBox="0 0 458.252 458.252" style="enable-background:new 0 0 458.252 458.252;"
	 xml:space="preserve">
<g>
	<g id="Layer_8_20_">
		<path d="M384.597,155.47C384.597,69.606,314.994,0,229.128,0C143.261,0,73.656,69.606,73.656,155.47
			c0,54.696,28.263,102.743,70.945,130.458l84.533,172.324l84.534-172.34C356.35,258.202,384.597,210.147,384.597,155.47z
			 M229.128,64.405c50.297,0,91.068,40.769,91.068,91.071c0,50.301-40.771,91.059-91.068,91.059
			c-50.302,0-91.071-40.763-91.071-91.065C138.057,105.169,178.826,64.405,229.128,64.405z"/>
	</g>
</g>
<g>
</g>
<g>
</g>
<g>
</g>
<g>
</g>
<g>
</g>
<g>
</g>
<g>
</g>
<g>
</g>
<g>
</g>
<g>
</g>
<g>
</g>
<g>
</g>
<g>
</g>
<g>
</g>
<g>
</g>
</svg>
