<?xml version="1.0" encoding="iso-8859-1"?>
<!-- Generator: Adobe Illustrator 16.0.0, SVG Export Plug-In . SVG Version: 6.00 Build 0)  -->
<!DOCTYPE svg PUBLIC "-//W3C//DTD SVG 1.1//EN" "http://www.w3.org/Graphics/SVG/1.1/DTD/svg11.dtd">
<svg version="1.1" id="Capa_1" xmlns="http://www.w3.org/2000/svg" xmlns:xlink="http://www.w3.org/1999/xlink" x="0px" y="0px"
	 width="485.946px" height="485.946px" viewBox="0 0 485.946 485.946" style="enable-background:new 0 0 485.946 485.946;"
	 xml:space="preserve">
<g>
	<g id="Layer_8_35_">
		<path d="M287.122,113.7c8.219-2.096,14.376-6.87,6.831-14.838c-0.91-0.949-2.377-0.618-3.044,0.386
			c-2.167,3.294-7.125,4.381-12.925,4.23c1.789-0.528,3.212-1.439,4.029-2.925c2.933-5.417,0.131-10.002-4.117-13.847
			c-1.532-1.401-3.272-2.279-5.109-2.778c11.426-20.155,23.791-44.21,32.097-66.752c19.42-52.689-61.004,36.059-88.735,20.406
			c-27.729-15.646-16.636-64.772-63.783-17.626c-33.193,33.21,18.394,63.636,51.831,78.748c-6.773,0.947-13.537,1.541-20.2,1.535
			c-7.51-0.006-14.995-0.235-22.481-0.846c-6.042-0.492-21.382-1.037-24.252-8.052c-0.927-2.273-4.66-1.283-3.719,1.032
			c3.182,7.795,14.192,9.217,21.459,10.159c7.923,1.026,15.98,1.507,24.022,1.603c-0.103,0.011-0.208,0.028-0.308,0.039
			c-19.729,2.577-39.65,5.71-58.717,11.542c-6.774,2.075-23.943,6.753-22.61,16.725c0.332,2.433,4.193,2.46,3.861,0
			c-1.503-11.244,32.219-16.451,39.168-17.953c19.458-4.23,39.279-6.864,59.097-8.851
			C143.283,133.271,65.179,214.038,65.179,312.806c0,119.542,79.595,173.141,177.792,173.141
			c98.197,0,177.795-53.599,177.795-173.141C420.767,214.918,354.466,147.312,287.122,113.7z M292.463,103.243
			c3.2,5.442-6.741,6.919-10.934,7.384c-0.24,0.027-0.436,0.017-0.667,0.036c-2.789-1.3-5.581-2.544-8.359-3.732
			C280.451,107.831,288.131,107.108,292.463,103.243z M270.646,87.65c0.484,0.077,0.952,0.135,1.447,0.263
			c5.373,1.62,7.157,5.333,5.317,11.138c-2.031,0.834-4.88,0.438-7.005,0.292c-2.058-0.136-4.088-0.459-6.106-0.853
			C266.351,95.062,268.484,91.426,270.646,87.65z M253.021,296.172l-4.399,15.722h-46.694c-0.194,2.741-0.296,7.441-0.296,14.106
			c0,6.862,0.103,11.753,0.296,14.697h50.163l-4.408,15.722h-44.578c4.209,39.267,17.53,58.9,39.96,58.9
			c22.911,0,35.987-16.844,39.222-50.534h28.509c-4.41,48.187-26.987,72.274-67.721,72.274c-39.769,0-62.636-26.89-68.608-80.65
			h-14.988v-15.734h13.812c-0.196-2.933-0.294-7.824-0.294-14.697c0-6.654,0.098-11.343,0.294-14.097h-13.812V296.16h14.988
			c5.678-54.55,28.545-81.83,68.608-81.83c19.185,0,34.594,5.926,46.211,17.778c11.595,11.85,18.774,28.697,21.516,50.537h-28.496
			c-1.382-14.595-5.501-26.01-12.419-34.229c-6.911-8.229-15.839-12.336-26.812-12.336c-22.43,0-35.749,20.03-39.956,60.086h49.903
			V296.172z"/>
	</g>
</g>
<g>
</g>
<g>
</g>
<g>
</g>
<g>
</g>
<g>
</g>
<g>
</g>
<g>
</g>
<g>
</g>
<g>
</g>
<g>
</g>
<g>
</g>
<g>
</g>
<g>
</g>
<g>
</g>
<g>
</g>
</svg>
