<?xml version="1.0" encoding="iso-8859-1"?>
<!-- Generator: Adobe Illustrator 16.0.0, SVG Export Plug-In . SVG Version: 6.00 Build 0)  -->
<!DOCTYPE svg PUBLIC "-//W3C//DTD SVG 1.1//EN" "http://www.w3.org/Graphics/SVG/1.1/DTD/svg11.dtd">
<svg version="1.1" id="Capa_1" xmlns="http://www.w3.org/2000/svg" xmlns:xlink="http://www.w3.org/1999/xlink" x="0px" y="0px"
	 width="480.521px" height="480.521px" viewBox="0 0 480.521 480.521" style="enable-background:new 0 0 480.521 480.521;"
	 xml:space="preserve">
<g>
	<g>
		<path d="M428.486,177.97l-0.662,0.302v-1.906l-0.42,0.163l0.272-0.677l-94.022-38.308l-8.399,10.92l85.269,34.737l-160.625,63.337
			v-15.717c-7.365-0.053-14.434-3.547-18.915-9.398l-66.07-85.937L56.687,176.596l-0.618-0.236v0.115L6.256,249.771l49.813-4.393
			v164.166l179.238,70.699v0.277h13.272v-0.277l179.232-70.699V296.508l46.453-19.967L428.486,177.97z M235.313,465.969
			L69.351,400.514v-204.64l165.962,65.458V465.969z M414.548,400.514l-165.963,65.455V261.332l36.493,96.529l129.47-55.656V400.514z
			"/>
		<path d="M244.566,211.646c0.781,1.022,1.998,1.629,3.287,1.629c1.288,0,2.506-0.606,3.286-1.629l78.199-101.709
			c1.135-1.481,1.135-3.535,0.024-5.027c-1.123-1.489-3.109-2.048-4.848-1.351l-51.766,20.439V4.152c0-2.303-1.856-4.152-4.15-4.152
			h-41.493c-2.296,0-4.152,1.85-4.152,4.152v119.853l-51.781-20.439c-1.738-0.697-3.709-0.139-4.835,1.351
			c-0.559,0.75-0.831,1.628-0.831,2.503c0,0.893,0.284,1.782,0.866,2.524L244.566,211.646z"/>
	</g>
</g>
<g>
</g>
<g>
</g>
<g>
</g>
<g>
</g>
<g>
</g>
<g>
</g>
<g>
</g>
<g>
</g>
<g>
</g>
<g>
</g>
<g>
</g>
<g>
</g>
<g>
</g>
<g>
</g>
<g>
</g>
</svg>
