<?xml version="1.0" encoding="iso-8859-1"?>
<!-- Generator: Adobe Illustrator 16.0.0, SVG Export Plug-In . SVG Version: 6.00 Build 0)  -->
<!DOCTYPE svg PUBLIC "-//W3C//DTD SVG 1.1//EN" "http://www.w3.org/Graphics/SVG/1.1/DTD/svg11.dtd">
<svg version="1.1" id="Capa_1" xmlns="http://www.w3.org/2000/svg" xmlns:xlink="http://www.w3.org/1999/xlink" x="0px" y="0px"
	 width="410.713px" height="410.713px" viewBox="0 0 410.713 410.713" style="enable-background:new 0 0 410.713 410.713;"
	 xml:space="preserve">
<g>
	<g id="Layer_8_67_">
		<path d="M387.818,221.403c-2.754-38.792-21.901-74.02-51.877-101.178c14.557-14.837,31.404-46.698,12.171-54.337
			c-19.234-7.631-88.765,22.783-88.765,22.783s-19.438-5.983-45.224-8.988c-3.91,20.99-16.588,38.881-34.109,49.798
			c3.004,0,6.03,0.054,9.149,0.186c7.052,0,12.777,5.737,12.777,12.791c0,7.073-5.726,12.794-12.777,12.794
			c0,0-40.528-4.271-83.152,12.791c-7.058,0-12.378-5.727-12.378-12.791c0-7.072,2.729-9.992,12.378-12.794
			c0,0,5.161-2.06,13.993-4.544c-17.303-4.924-32.079-15.913-41.84-30.525C31.975,136.201,4.12,183.479,4.12,237.041
			c0,52.751,12.323,90.721,59.519,120.992c10.26,4.882,10.271,47.442,10.271,47.442l47.456,3.655c0,0-6.906-20.072,5.462-18.146
			c19.877,5.759,33.597,6.468,56.723,6.468c8.226,0,16.328-0.383,24.302-1.148c2.225-0.209,7.558,14.409,7.558,14.409l32.618-0.221
			c0,0,7.519-21.598,11.991-25.04c2.662-0.864,5.289-1.778,7.883-2.726c4.355,1.149,4.401,12.312,4.401,12.312l50.343-4.786
			c0,0-7.816-30.382-4.095-34.114c14.489-10.326,27.124-22.266,37.539-35.517c20.979-23.043,50.502-21.403,50.502-21.403v-63.224
			C406.575,235.996,394.467,239.028,387.818,221.403z M324.231,190.242c-8.831,0-15.978-7.16-15.978-15.989
			c0-8.837,7.138-15.994,15.978-15.994c8.827,0,15.981,7.152,15.981,15.994C340.199,183.077,333.058,190.242,324.231,190.242z
			 M142.551,129.968c35.822,0,64.961-29.149,64.961-64.999C207.512,29.141,178.373,0,142.551,0
			c-35.829,0-64.975,29.141-64.975,64.969C77.583,100.818,106.723,129.968,142.551,129.968z M142.551,14.164
			c28.01,0,50.793,22.787,50.793,50.805c0,28.031-22.787,50.83-50.793,50.83c-28.017,0-50.81-22.799-50.81-50.83
			C91.746,36.951,114.534,14.164,142.551,14.164z M119.068,55.606L117.235,41.8l3.56-0.476c11.419-1.518,13.051-7.083,13.285-11.136
			l0.173-2.958l13.045-1.731l9.908,74.772l-15.624,2.074l-6.679-50.397c-3.266,1.491-7.335,2.534-12.279,3.192L119.068,55.606z"/>
	</g>
</g>
<g>
</g>
<g>
</g>
<g>
</g>
<g>
</g>
<g>
</g>
<g>
</g>
<g>
</g>
<g>
</g>
<g>
</g>
<g>
</g>
<g>
</g>
<g>
</g>
<g>
</g>
<g>
</g>
<g>
</g>
</svg>
