<?xml version="1.0" encoding="iso-8859-1"?>
<!-- Generator: Adobe Illustrator 16.0.0, SVG Export Plug-In . SVG Version: 6.00 Build 0)  -->
<!DOCTYPE svg PUBLIC "-//W3C//DTD SVG 1.1//EN" "http://www.w3.org/Graphics/SVG/1.1/DTD/svg11.dtd">
<svg version="1.1" id="Capa_1" xmlns="http://www.w3.org/2000/svg" xmlns:xlink="http://www.w3.org/1999/xlink" x="0px" y="0px"
	 width="924px" height="924px" viewBox="0 0 924 924" style="enable-background:new 0 0 924 924;" xml:space="preserve">
<g>
	<g>
		<path d="M193.6,134.75l-56,56l70.6,70.6l81.6-65.7l-60.8-60.9C219.2,125.05,203.4,125.05,193.6,134.75z"/>
		<path d="M733.7,134.75c-9.8-9.8-25.601-9.8-35.4,0l-62.3,62.4l79.8,64.2l72.3-72.3L733.7,134.75z"/>
		<path d="M898.8,130.95c-6.1,0-12.399,2.3-17.5,7.4l-72,72l-91.3,91.3l-103.3-83.1l-137-110.3c-4.601-3.7-10.101-5.5-15.7-5.5
			s-11.1,1.8-15.7,5.5l-135.1,108.8l-105.1,84.6l-89.7-89.7l-73.7-73.7c-5.1-5.1-11.4-7.4-17.5-7.4c-12.9,0-25.2,10-25.2,25v362.3
			c0,82.799,206.8,149.9,462,149.9s462-67.102,462-149.9v-362.2C924,140.95,911.6,130.95,898.8,130.95z M120.7,470.25l-17.4,34.199
			c-3.7,7.301-14.1,7.301-17.8,0L68,470.25c-1.4-2.801-1.4-6.199,0-9.1l17.4-34.2c3.7-7.3,14.1-7.3,17.8,0l17.4,34.2
			C122.1,464.051,122.1,467.35,120.7,470.25z M526.4,513.551l-56.2,80.898c-4,5.701-12.4,5.701-16.4,0l-56.2-80.898
			c-2.399-3.4-2.399-8,0-11.4l56.2-80.9c4-5.7,12.4-5.7,16.4,0l56.2,80.9C528.8,505.551,528.8,510.051,526.4,513.551z M857.8,470.25
			L840.4,504.449c-3.7,7.301-14.101,7.301-17.801,0L805.2,470.25c-1.4-2.801-1.4-6.199,0-9.1l17.399-34.2
			c3.7-7.3,14.101-7.3,17.801,0l17.399,34.2C859.3,464.051,859.3,467.35,857.8,470.25z"/>
		<path d="M567,705.449c-33.7,2.5-68.9,3.9-105,3.9s-71.3-1.299-105-3.9c-172.6-12.898-308.6-57-348.6-112.898
			c-3.6-5-6.4-10-8.4-15.201v7.201v86.799c0,82.801,206.8,149.9,462,149.9s462-67.1,462-149.9v-86.799v-7.201
			c-2,5.1-4.8,10.201-8.4,15.201C875.6,648.551,739.6,692.551,567,705.449z"/>
	</g>
</g>
<g>
</g>
<g>
</g>
<g>
</g>
<g>
</g>
<g>
</g>
<g>
</g>
<g>
</g>
<g>
</g>
<g>
</g>
<g>
</g>
<g>
</g>
<g>
</g>
<g>
</g>
<g>
</g>
<g>
</g>
</svg>
