<?xml version="1.0" encoding="iso-8859-1"?>
<!-- Generator: Adobe Illustrator 16.0.0, SVG Export Plug-In . SVG Version: 6.00 Build 0)  -->
<!DOCTYPE svg PUBLIC "-//W3C//DTD SVG 1.1//EN" "http://www.w3.org/Graphics/SVG/1.1/DTD/svg11.dtd">
<svg version="1.1" id="Capa_1" xmlns="http://www.w3.org/2000/svg" xmlns:xlink="http://www.w3.org/1999/xlink" x="0px" y="0px"
	 width="491.918px" height="491.918px" viewBox="0 0 491.918 491.918" style="enable-background:new 0 0 491.918 491.918;"
	 xml:space="preserve">
<g>
	<path d="M49.426,0v491.906h34.483V385.412h326.404v106.506h32.179V0H49.426z M410.313,367.018h-96.546V294.61h-26.434v72.413
		H276.99V294.61h-26.433v72.413h-9.194V294.61H214.93v72.413h-10.926V294.61h-26.43v72.413H167.23V294.61h-26.433v72.413h-9.2
		V294.61h-26.433v72.413H83.909V262.042h326.404V367.018z M410.313,243.66h-18.643l5.532-1.259l-16.964-74.721l-25.771,5.854
		l15.912,70.125h-15.912v-70.125v-3.88h-26.433v74.006h-123.45v-74.334h-26.433v74.328H167.81v-74.328h-26.43v74.328h-9.2v-74.328
		h-26.433v74.328H83.915v-98.071h326.404v98.078H410.313z M410.313,127.188h-10.911V50.566h-26.444v76.622h-10.345V50.566h-26.433
		v76.622h-9.197V50.566h-26.427v76.622h-131.21l17.07-3.88L169.45,48.584l-25.777,5.863l16.518,72.747h-16.518V54.447v-3.881H117.24
		v76.622H83.915V18.386h326.404v108.802H410.313z"/>
</g>
<g>
</g>
<g>
</g>
<g>
</g>
<g>
</g>
<g>
</g>
<g>
</g>
<g>
</g>
<g>
</g>
<g>
</g>
<g>
</g>
<g>
</g>
<g>
</g>
<g>
</g>
<g>
</g>
<g>
</g>
</svg>
