<?xml version="1.0" encoding="iso-8859-1"?>
<!-- Generator: Adobe Illustrator 16.0.0, SVG Export Plug-In . SVG Version: 6.00 Build 0)  -->
<!DOCTYPE svg PUBLIC "-//W3C//DTD SVG 1.1//EN" "http://www.w3.org/Graphics/SVG/1.1/DTD/svg11.dtd">
<svg version="1.1" id="Capa_1" xmlns="http://www.w3.org/2000/svg" xmlns:xlink="http://www.w3.org/1999/xlink" x="0px" y="0px"
	 width="353.942px" height="353.942px" viewBox="0 0 353.942 353.942" style="enable-background:new 0 0 353.942 353.942;"
	 xml:space="preserve">
<g>
	<g id="Layer_8_34_">
		<path d="M249.501,230.306c0,6.437-5.221,11.673-11.667,11.673c-6.44,0-11.677-5.236-11.677-11.673
			c0-6.445,5.236-11.67,11.677-11.67C244.281,218.636,249.501,223.861,249.501,230.306z M316.182,86.47
			c4.646,0,8.408-3.765,8.408-8.405c0-4.638-3.762-8.405-8.408-8.405h-45.034l5.429,16.81H316.182z M353.942,221.01v21.527
			c0,11.146-7.335,20.508-17.379,23.818v73.594c0,6.188-5.021,11.206-11.207,11.206H11.217c-6.185,0-11.206-5.018-11.206-11.206
			V116.476c0-0.682,0.084-1.344,0.203-1.994C0.086,113.283,0,112.068,0,110.84c0-18.648,14.866-41.171,33.323-41.171h13.718
			c-0.577,0.574-1.149,1.141-1.721,1.718c-4.086,4.085-4.258,10.725-0.611,15.092H33.323c-6.578,0-13.533,9.732-15.763,18.792
			h307.796c6.187,0,11.207,5.022,11.207,11.206v80.715C346.607,200.501,353.942,209.864,353.942,221.01z M348.338,221.01
			c0-10.802-8.779-19.579-19.581-19.579h-98.512c-16.531,0-29.938,13.406-29.938,29.943c0,16.53,13.406,29.942,29.938,29.942
			h103.768c8.238-2.31,14.329-9.806,14.329-18.779V221.01H348.338z M275.039,97.387l-15.157-39.116L158.927,97.387H275.039z
			 M55.065,97.387h28.666l166.34-64.449l-9.5-24.55c-1.757-4.515-6.846-6.755-11.36-5.007L54.307,71.141
			c-4.522,1.753-6.763,6.837-5.015,11.352L55.065,97.387z"/>
	</g>
</g>
<g>
</g>
<g>
</g>
<g>
</g>
<g>
</g>
<g>
</g>
<g>
</g>
<g>
</g>
<g>
</g>
<g>
</g>
<g>
</g>
<g>
</g>
<g>
</g>
<g>
</g>
<g>
</g>
<g>
</g>
</svg>
